<svg width="59" height="40" viewBox="0 0 59 40" fill="none" xmlns="http://www.w3.org/2000/svg">
<path fill-rule="evenodd" clip-rule="evenodd" d="M26.5867 0.550026L27.4532 1.99568C27.7077 2.42029 27.6409 2.9636 27.291 3.31383C26.7632 3.84214 26.6323 4.64875 26.966 5.31681L27.5682 6.52244L28.4629 6.07558L27.8606 4.86996C27.7191 4.58666 27.7746 4.24462 27.9984 4.02058C28.6724 3.34597 28.8012 2.29946 28.3109 1.48156L27.4444 0.0359112L26.5867 0.550026ZM31.5867 1.55103L32.4532 2.99668C32.7077 3.4213 32.6409 3.96461 32.291 4.31484C31.7632 4.84315 31.6323 5.64975 31.966 6.31782L32.5682 7.52344L33.4629 7.07659L32.8606 5.87096C32.7191 5.58767 32.7746 5.24562 32.9984 5.02159C33.6724 4.34698 33.8012 3.30046 33.3109 2.48257L32.4444 1.03692L31.5867 1.55103ZM23.4532 5.9997L22.5867 4.55405L23.4444 4.03994L24.3109 5.48559C24.8012 6.30348 24.6724 7.35 23.9984 8.02461C23.7746 8.24864 23.7191 8.59069 23.8606 8.87398L24.4629 10.0796L23.5682 10.5265L22.966 9.32084C22.6323 8.65277 22.7632 7.84617 23.291 7.31786C23.6409 6.96763 23.7077 6.42432 23.4532 5.9997ZM29.699 11.9324C17.7763 11.9371 5.83875 19.6431 4.51371 35.0429L3.51739 34.9572C4.74463 20.6941 14.7706 12.7762 25.6782 11.2185C26.3258 9.18007 28.1538 8.16292 29.9629 8.16511C31.799 8.16734 33.6729 9.21861 34.3369 11.3111C44.8648 13.0513 54.3289 20.7894 55.4807 34.5292L57.9903 34.5L58.8652 34.4898L58.4299 35.2488L56.6975 38.2691L56.5553 38.517L56.2696 38.5203L2.80806 39.1426L2.52233 39.1459L2.37443 38.9014L0.572189 35.9222L0.119343 35.1736L0.994181 35.1634L54.4781 34.5409C53.1778 19.4566 41.4918 11.9278 29.699 11.9324ZM29.6986 10.9324C28.733 10.9328 27.7667 10.9821 26.8052 11.0805C27.4096 9.80017 28.6697 9.16355 29.9616 9.16511C31.2741 9.1667 32.573 9.82781 33.1994 11.1469C32.0389 11.0034 30.8688 10.9319 29.6986 10.9324ZM55.9722 37.5237L57.1271 35.5101L1.88065 36.1532L3.08215 38.1393L55.9722 37.5237ZM17.958 27.2731H17.58V23.6371H15.966V32.3131H17.58V28.4971H18.09C18.278 28.4971 18.422 28.5191 18.522 28.5631C18.622 28.6071 18.71 28.6831 18.786 28.7911L21.24 31.9951C21.304 32.0991 21.382 32.1791 21.474 32.2351C21.57 32.2871 21.714 32.3131 21.906 32.3131H23.328L20.316 28.2511C20.22 28.1111 20.118 27.9991 20.01 27.9151C19.906 27.8271 19.788 27.7591 19.656 27.7111C19.84 27.6191 20.018 27.4631 20.19 27.2431L23.112 23.6371H21.72C21.552 23.6371 21.412 23.6631 21.3 23.7151C21.192 23.7631 21.088 23.8511 20.988 23.9791L18.594 27.0091C18.522 27.1011 18.436 27.1691 18.336 27.2131C18.236 27.2531 18.11 27.2731 17.958 27.2731ZM26.1071 29.7991C26.3991 29.7431 26.7591 29.7051 27.1871 29.6851V30.7231C26.9751 30.9471 26.7571 31.1151 26.5331 31.2271C26.3131 31.3351 26.0511 31.3891 25.7471 31.3891C25.4991 31.3891 25.2971 31.3331 25.1411 31.2211C24.9891 31.1091 24.9131 30.9231 24.9131 30.6631C24.9131 30.5311 24.9511 30.4091 25.0271 30.2971C25.1031 30.1851 25.2291 30.0871 25.4051 30.0031C25.5811 29.9191 25.8151 29.8511 26.1071 29.7991ZM26.3471 26.0431C25.3511 26.0431 24.4991 26.3671 23.7911 27.0151L24.0551 27.4891C24.0991 27.5611 24.1571 27.6251 24.2291 27.6811C24.3011 27.7331 24.3891 27.7591 24.4931 27.7591C24.6131 27.7591 24.7211 27.7311 24.8171 27.6751C24.9171 27.6191 25.0271 27.5571 25.1471 27.4891C25.2671 27.4171 25.4051 27.3531 25.5611 27.2971C25.7211 27.2411 25.9211 27.2131 26.1611 27.2131C26.4931 27.2131 26.7471 27.3131 26.9231 27.5131C27.0991 27.7091 27.1871 28.0131 27.1871 28.4251V28.7851C26.7191 28.7971 26.3031 28.8331 25.9391 28.8931C25.5751 28.9491 25.2551 29.0231 24.9791 29.1151C24.7071 29.2071 24.4771 29.3151 24.2891 29.4391C24.1011 29.5631 23.9471 29.6951 23.8271 29.8351C23.7111 29.9751 23.6271 30.1231 23.5751 30.2791C23.5231 30.4311 23.4971 30.5851 23.4971 30.7411C23.4971 31.0171 23.5411 31.2591 23.6291 31.4671C23.7171 31.6751 23.8411 31.8491 24.0011 31.9891C24.1611 32.1291 24.3511 32.2351 24.5711 32.3071C24.7911 32.3751 25.0311 32.4091 25.2911 32.4091C25.5111 32.4091 25.7111 32.3891 25.8911 32.3491C26.0751 32.3131 26.2471 32.2591 26.4071 32.1871C26.5671 32.1151 26.7211 32.0271 26.8691 31.9231C27.0171 31.8151 27.1691 31.6911 27.3251 31.5511L27.4571 31.9951C27.5011 32.1231 27.5611 32.2091 27.6371 32.2531C27.7131 32.2931 27.8211 32.3131 27.9611 32.3131H28.6331V28.4251C28.6331 28.0771 28.5811 27.7571 28.4771 27.4651C28.3771 27.1731 28.2291 26.9231 28.0331 26.7151C27.8371 26.5031 27.5971 26.3391 27.3131 26.2231C27.0291 26.1031 26.7071 26.0431 26.3471 26.0431ZM32.1109 26.3611C31.8469 26.5691 31.6189 26.8571 31.4269 27.2251L31.3369 26.5291C31.3169 26.3891 31.2769 26.2931 31.2169 26.2411C31.1569 26.1851 31.0509 26.1571 30.8989 26.1571H30.0289V32.3131H31.5109V28.5211C31.5789 28.3571 31.6509 28.2111 31.7269 28.0831C31.8069 27.9551 31.8969 27.8471 31.9969 27.7591C32.1009 27.6671 32.2169 27.5971 32.3449 27.5491C32.4729 27.5011 32.6189 27.4771 32.7829 27.4771C32.8949 27.4771 33.0089 27.4871 33.1249 27.5071C33.2449 27.5271 33.3349 27.5371 33.3949 27.5371C33.4589 27.5371 33.5089 27.5231 33.5449 27.4951C33.5849 27.4631 33.6149 27.4111 33.6349 27.3391L33.7309 26.2291C33.5589 26.1051 33.3309 26.0431 33.0469 26.0431C32.6869 26.0431 32.3749 26.1491 32.1109 26.3611ZM35.3214 31.9591C35.6094 32.2591 36.0214 32.4091 36.5574 32.4091C36.8574 32.4091 37.1474 32.3631 37.4274 32.2711C37.7074 32.1791 37.9554 32.0431 38.1714 31.8631L37.7274 31.1431C37.6954 31.0991 37.6654 31.0671 37.6374 31.0471C37.6094 31.0231 37.5734 31.0111 37.5294 31.0111C37.4934 31.0111 37.4574 31.0231 37.4214 31.0471C37.3854 31.0671 37.3434 31.0891 37.2954 31.1131C37.2514 31.1371 37.1974 31.1611 37.1334 31.1851C37.0734 31.2051 36.9974 31.2151 36.9054 31.2151C36.7414 31.2151 36.6114 31.1611 36.5154 31.0531C36.4234 30.9451 36.3774 30.7951 36.3774 30.6031V27.2671H38.0214V26.2111H36.3774V24.2731H35.6094C35.5214 24.2731 35.4494 24.2951 35.3934 24.3391C35.3374 24.3831 35.2994 24.4451 35.2794 24.5251L34.9674 26.2051L33.9774 26.3671V26.9551C33.9774 27.0591 34.0054 27.1371 34.0614 27.1891C34.1174 27.2411 34.1854 27.2671 34.2654 27.2671H34.8954V30.7051C34.8954 31.2371 35.0374 31.6551 35.3214 31.9591ZM42.8894 26.2831C42.5174 26.1351 42.1034 26.0611 41.6474 26.0611C41.1874 26.0611 40.7694 26.1351 40.3934 26.2831C40.0174 26.4311 39.6954 26.6411 39.4274 26.9131C39.1634 27.1851 38.9574 27.5171 38.8094 27.9091C38.6654 28.3011 38.5934 28.7391 38.5934 29.2231C38.5934 29.7111 38.6654 30.1511 38.8094 30.5431C38.9574 30.9351 39.1634 31.2691 39.4274 31.5451C39.6954 31.8211 40.0174 32.0331 40.3934 32.1811C40.7694 32.3291 41.1874 32.4031 41.6474 32.4031C42.1034 32.4031 42.5174 32.3291 42.8894 32.1811C43.2654 32.0331 43.5854 31.8211 43.8494 31.5451C44.1174 31.2691 44.3234 30.9351 44.4674 30.5431C44.6114 30.1511 44.6834 29.7111 44.6834 29.2231C44.6834 28.7391 44.6114 28.3011 44.4674 27.9091C44.3234 27.5171 44.1174 27.1851 43.8494 26.9131C43.5854 26.6411 43.2654 26.4311 42.8894 26.2831ZM42.7814 30.7471C42.5374 31.0911 42.1594 31.2631 41.6474 31.2631C41.1274 31.2631 40.7414 31.0911 40.4894 30.7471C40.2414 30.3991 40.1174 29.8951 40.1174 29.2351C40.1174 28.5751 40.2414 28.0711 40.4894 27.7231C40.7414 27.3711 41.1274 27.1951 41.6474 27.1951C42.1594 27.1951 42.5374 27.3691 42.7814 27.7171C43.0294 28.0651 43.1534 28.5711 43.1534 29.2351C43.1534 29.8991 43.0294 30.4031 42.7814 30.7471ZM36.4532 5.9997L35.5867 4.55405L36.4444 4.03994L37.3109 5.48559C37.8012 6.30348 37.6724 7.35 36.9984 8.02461C36.7746 8.24864 36.7191 8.59069 36.8606 8.87398L37.4629 10.0796L36.5682 10.5265L35.966 9.32084C35.6323 8.65277 35.7632 7.84617 36.291 7.31786C36.6409 6.96763 36.7077 6.42432 36.4532 5.9997ZM22.5616 15.812L22.6369 15.7931L22.3942 14.823L22.3189 14.8419C18.3812 15.8273 14.932 18.2017 12.6058 21.5281L13.4253 22.1012C15.6133 18.9723 18.8578 16.7389 22.5616 15.812Z" fill="white"/>
</svg>
